<svg xmlns="http://www.w3.org/2000/svg" viewBox="0 58 256 130" width="256" height="130" role="img" aria-label="Masque.jl logo: a gold Venetian eye mask set with four jewels in the Julia colours">
  <style>
    .glint {
      transform-box: fill-box;
      transform-origin: center;
      transform: scale(0);
      animation: masque-twinkle 5s ease-in-out infinite;
    }
    @keyframes masque-twinkle {
      0%   { transform: scale(0) rotate(0deg); }
      6%   { transform: scale(1) rotate(25deg); }
      12%  { transform: scale(0.55) rotate(45deg); }
      18%  { transform: scale(0.9) rotate(60deg); }
      26%  { transform: scale(0) rotate(90deg); }
      100% { transform: scale(0) rotate(90deg); }
    }
    @media (prefers-reduced-motion: reduce) {
      .glint { animation: none; transform: scale(0.7); }
    }
  </style>
  <path fill="#C9962B" fill-rule="evenodd" d="
    M 14 104
    C 30 76, 84 60, 128 86
    C 172 60, 226 76, 242 104
    C 236 146, 210 178, 176 172
    C 154 168, 142 152, 128 148
    C 114 152, 102 168, 80 172
    C 46 178, 20 146, 14 104 Z
    M 48 112 C 66 92, 100 98, 114 126 C 98 142, 62 140, 48 112 Z
    M 208 112 C 190 92, 156 98, 142 126 C 158 142, 194 140, 208 112 Z
    M 90 76 A 12 12 0 1 0 66 76 A 12 12 0 1 0 90 76 Z
    M 190 76 A 12 12 0 1 0 166 76 A 12 12 0 1 0 190 76 Z
    M 142 88 A 14 14 0 1 0 114 88 A 14 14 0 1 0 142 88 Z
    M 139 150 A 11 11 0 1 0 117 150 A 11 11 0 1 0 139 150 Z"/>
  <circle cx="128" cy="88" r="10" fill="#CB3C33"/>
  <circle cx="78" cy="76" r="8" fill="#9558B2"/>
  <circle cx="178" cy="76" r="8" fill="#389826"/>
  <circle cx="128" cy="150" r="7" fill="#4063D8"/>
  <g transform="translate(184 113)">
    <path class="glint" fill="#C9962B" d="M 0 -11 Q 1.6 -1.6 11 0 Q 1.6 1.6 0 11 Q -1.6 1.6 -11 0 Q -1.6 -1.6 0 -11 Z"/>
  </g>
</svg>
